<?xml version="1.0" encoding="UTF-8" standalone="no"?>
<!-- Created with Inkscape (http://www.inkscape.org/) -->

<svg
   xmlns:dc="http://purl.org/dc/elements/1.1/"
   xmlns:cc="http://creativecommons.org/ns#"
   xmlns:rdf="http://www.w3.org/1999/02/22-rdf-syntax-ns#"
   xmlns:svg="http://www.w3.org/2000/svg"
   xmlns="http://www.w3.org/2000/svg"
   xmlns:sodipodi="http://sodipodi.sourceforge.net/DTD/sodipodi-0.dtd"
   xmlns:inkscape="http://www.inkscape.org/namespaces/inkscape"
   width="512"
   height="256"
   id="svg2"
   version="1.1"
   inkscape:version="0.48.5 r10040"
   sodipodi:docname="hints_vive_controller.svg"
   inkscape:export-filename="D:\Projects\pymol-vr\data\openvr\hints_vive_controller.png"
   inkscape:export-xdpi="90"
   inkscape:export-ydpi="90">
  <defs
     id="defs4">
    <filter
       inkscape:collect="always"
       id="filter3810"
       color-interpolation-filters="sRGB">
      <feGaussianBlur
         inkscape:collect="always"
         stdDeviation="0.9"
         id="feGaussianBlur3812" />
    </filter>
    <filter
       inkscape:collect="always"
       id="filter3822"
       color-interpolation-filters="sRGB">
      <feGaussianBlur
         inkscape:collect="always"
         stdDeviation="0.1050293"
         id="feGaussianBlur3824" />
    </filter>
    <filter
       inkscape:collect="always"
       id="filter3848"
       color-interpolation-filters="sRGB">
      <feGaussianBlur
         inkscape:collect="always"
         stdDeviation="0.72"
         id="feGaussianBlur3850" />
    </filter>
    <filter
       inkscape:collect="always"
       id="filter3852"
       color-interpolation-filters="sRGB">
      <feGaussianBlur
         inkscape:collect="always"
         stdDeviation="0.78"
         id="feGaussianBlur3854" />
    </filter>
    <filter
       inkscape:collect="always"
       id="filter3856"
       color-interpolation-filters="sRGB">
      <feGaussianBlur
         inkscape:collect="always"
         stdDeviation="0.72"
         id="feGaussianBlur3858" />
    </filter>
    <filter
       inkscape:collect="always"
       id="filter3879"
       color-interpolation-filters="sRGB">
      <feGaussianBlur
         inkscape:collect="always"
         stdDeviation="0.69"
         id="feGaussianBlur3881" />
    </filter>
    <filter
       inkscape:collect="always"
       id="filter3883"
       color-interpolation-filters="sRGB">
      <feGaussianBlur
         inkscape:collect="always"
         stdDeviation="0.69"
         id="feGaussianBlur3885" />
    </filter>
    <filter
       inkscape:collect="always"
       id="filter3973">
      <feGaussianBlur
         inkscape:collect="always"
         stdDeviation="0.688"
         id="feGaussianBlur3975" />
    </filter>
    <filter
       inkscape:collect="always"
       id="filter3981">
      <feGaussianBlur
         inkscape:collect="always"
         stdDeviation="0.688"
         id="feGaussianBlur3983" />
    </filter>
  </defs>
  <sodipodi:namedview
     id="base"
     pagecolor="#404040"
     bordercolor="#666666"
     borderopacity="1.0"
     inkscape:pageopacity="0"
     inkscape:pageshadow="2"
     inkscape:zoom="1"
     inkscape:cx="460"
     inkscape:cy="128"
     inkscape:document-units="px"
     inkscape:current-layer="layer1"
     showgrid="true"
     width="512px"
     inkscape:window-width="1920"
     inkscape:window-height="1017"
     inkscape:window-x="-8"
     inkscape:window-y="-8"
     inkscape:window-maximized="1">
    <inkscape:grid
       type="xygrid"
       id="grid2988"
       empspacing="8"
       visible="true"
       enabled="true"
       snapvisiblegridlinesonly="true"
       spacingx="4px"
       spacingy="4px"
       color="#808080"
       opacity="0.1254902"
       empcolor="#808080"
       empopacity="0.25098039" />
  </sodipodi:namedview>
  <metadata
     id="metadata7">
    <rdf:RDF>
      <cc:Work
         rdf:about="">
        <dc:format>image/svg+xml</dc:format>
        <dc:type
           rdf:resource="http://purl.org/dc/dcmitype/StillImage" />
        <dc:title></dc:title>
      </cc:Work>
    </rdf:RDF>
  </metadata>
  <g
     inkscape:groupmode="layer"
     id="layer2"
     inkscape:label="Background"
     style="display:inline"
     sodipodi:insensitive="true">
    <rect
       style="fill:#202020;fill-opacity:1;stroke:none"
       id="rect2990"
       width="512"
       height="256"
       x="0"
       y="0" />
  </g>
  <g
     inkscape:label="Layer 1"
     inkscape:groupmode="layer"
     id="layer1"
     transform="translate(0,-796.3622)">
    <path
       id="path3786"
       style="fill:none;stroke:#ffffff;stroke-width:5;stroke-linecap:butt;stroke-linejoin:miter;stroke-miterlimit:4;stroke-opacity:1;stroke-dasharray:none;filter:url(#filter3810)"
       d="m 43.126972,1009.0228 50.98755,-50.77512 m 67.558508,-67.77096 50.98755,-50.7751 m -50.7751,118.54606 51.2,50.98752 M 42.914523,839.48917 l 51.2,50.98755 M 128,804.3622 c -66.274173,0 -120,53.72583 -120,120 0,66.27417 53.725827,120 120,120 66.27418,0 120,-53.72583 120,-120 0,-66.27417 -53.72582,-120 -120,-120 z m 0,72 c 26.50967,0 48,21.49033 48,48 0,26.50967 -21.49033,48 -48,48 -26.50967,0 -48,-21.49033 -48,-48 0,-26.50967 21.49033,-48 48,-48 z"
       inkscape:connector-curvature="0" />
    <path
       id="path3784"
       style="fill:#ffffff;fill-opacity:1;stroke:none;filter:url(#filter3848)"
       d="m 204,900.3622 0,48 32,-24 z m -16,0 0,48 8,0 0,-48 z"
       inkscape:connector-curvature="0" />
    <path
       inkscape:connector-curvature="0"
       d="m 52,900.3622 0,48 -32,-24 z m 16,0 0,48 -8,0 0,-48 z"
       style="fill:#ffffff;fill-opacity:1;stroke:none;filter:url(#filter3856)"
       id="path3787" />
    <path
       id="path3793"
       transform="translate(0,796.3622)"
       style="fill:#ffffff;fill-opacity:1;stroke:none;filter:url(#filter3852)"
       d="m 148,104 0,48 8,0 0,-48 z m -48,0 0,48 32,-24 z m 32,0 0,48 8,0 0,-48 z"
       inkscape:connector-curvature="0" />
    <path
       id="path3869"
       style="fill:#ffffff;fill-opacity:1;stroke:none;filter:url(#filter3883)"
       d="m 104,844.3622 48,0 -24,-28 z m 0,20 48,0 -24,-28 z"
       inkscape:connector-curvature="0" />
    <path
       d="m 104,844.3622 48,0 -24,-28 z m 0,20 48,0 -24,-28 z"
       style="fill:#ffffff;fill-opacity:1;stroke:none;filter:url(#filter3883)"
       id="path3888"
       inkscape:connector-curvature="0"
       transform="matrix(1,0,0,-1,0,1848.7244)" />
    <path
       inkscape:connector-curvature="0"
       d="m 299.12697,1009.0228 50.98755,-50.77512 m 67.55851,-67.77096 50.98755,-50.7751 m -50.7751,118.54606 51.2,50.98752 m -170.17096,-169.74603 51.2,50.98755 M 384,804.3622 c -66.27417,0 -120,53.72583 -120,120 0,66.2742 53.72583,120 120,120 66.27418,0 120,-53.7258 120,-120 0,-66.27417 -53.72582,-120 -120,-120 z m 0,72 c 26.50967,0 48,21.49033 48,48 0,26.50967 -21.49033,48 -48,48 -26.50967,0 -48,-21.49033 -48,-48 0,-26.50967 21.49033,-48 48,-48 z"
       style="fill:none;stroke:#ffffff;stroke-width:5;stroke-linecap:butt;stroke-linejoin:miter;stroke-miterlimit:4;stroke-opacity:1;stroke-dasharray:none;filter:url(#filter3810)"
       id="path3890" />
    <g
       id="g3923"
       transform="translate(0,-84)"
       style="stroke-width:5;stroke-miterlimit:4;stroke-dasharray:none;filter:url(#filter3981)">
      <path
         id="rect3894"
         transform="translate(0,796.3622)"
         d="m 364,128 0,16 c 0,6.648 5.352,12 12,12 l 16,0 c 6.648,0 12,-5.352 12,-12 l 0,-16 -40,0 z"
         style="fill:none;stroke:#ffffff;stroke-width:5;stroke-linecap:square;stroke-miterlimit:4;stroke-opacity:1;stroke-dasharray:none;stroke-dashoffset:0"
         inkscape:connector-curvature="0" />
      <path
         inkscape:connector-curvature="0"
         id="rect3904"
         d="m 376,896.3622 c -6.648,0 -12,5.352 -12,12 l 0,16 16,0 0,-28 -4,0 z"
         style="fill:none;stroke:#ffffff;stroke-width:5;stroke-linecap:square;stroke-miterlimit:4;stroke-opacity:1;stroke-dasharray:none;stroke-dashoffset:0" />
      <path
         inkscape:connector-curvature="0"
         id="rect3909"
         d="m 388,896.3622 0,28 16,0 0,-16 c 0,-6.648 -5.352,-12 -12,-12 l -4,0 z"
         style="fill:none;stroke:#ffffff;stroke-width:5;stroke-linecap:square;stroke-miterlimit:4;stroke-opacity:1;stroke-dasharray:none;stroke-dashoffset:0" />
      <path
         inkscape:connector-curvature="0"
         id="rect3915"
         d="m 380,896.3622 0,28 8,0 0,-28 -8,0 z"
         style="fill:#ffffff;stroke:#ffffff;stroke-width:5;stroke-linecap:square;stroke-miterlimit:4;stroke-opacity:1;stroke-dasharray:none;stroke-dashoffset:0;fill-opacity:1" />
    </g>
    <g
       id="g3989"
       transform="translate(4,0)">
      <path
         inkscape:connector-curvature="0"
         id="path3941"
         d="m 280,924.3622 0,16 c 0,6.648 5.352,12 12,12 l 16,0 c 6.648,0 12,-5.352 12,-12 l 0,-16 -40,0 z"
         style="fill:none;stroke:#ffffff;stroke-width:5;stroke-linecap:square;stroke-miterlimit:4;stroke-opacity:1;stroke-dasharray:none;stroke-dashoffset:0" />
      <path
         inkscape:connector-curvature="0"
         id="path3943"
         d="m 292,896.3622 c -6.648,0 -12,5.352 -12,12 l 0,16 12,0 c 0,-8 0,-20 0,-28 z"
         style="fill:#ffffff;fill-opacity:1;stroke:#ffffff;stroke-width:5;stroke-linecap:square;stroke-linejoin:bevel;stroke-miterlimit:4;stroke-opacity:1;stroke-dasharray:none;stroke-dashoffset:0"
         sodipodi:nodetypes="csccc" />
      <path
         sodipodi:nodetypes="scccss"
         inkscape:connector-curvature="0"
         id="path3945"
         d="m 308,896.3622 -16,0 0,28 28,0 0,-16 c 0,-6.648 -5.352,-12 -12,-12 z"
         style="fill:none;stroke:#ffffff;stroke-width:5;stroke-linecap:square;stroke-linejoin:bevel;stroke-miterlimit:4;stroke-opacity:1;stroke-dasharray:none;stroke-dashoffset:0" />
    </g>
    <g
       id="g3994"
       transform="matrix(-1,0,0,1,764,0)">
      <path
         style="fill:none;stroke:#ffffff;stroke-width:5;stroke-linecap:square;stroke-miterlimit:4;stroke-opacity:1;stroke-dasharray:none;stroke-dashoffset:0"
         d="m 280,924.3622 0,16 c 0,6.648 5.352,12 12,12 l 16,0 c 6.648,0 12,-5.352 12,-12 l 0,-16 -40,0 z"
         id="path3996"
         inkscape:connector-curvature="0" />
      <path
         sodipodi:nodetypes="csccc"
         style="fill:#ffffff;fill-opacity:1;stroke:#ffffff;stroke-width:5;stroke-linecap:square;stroke-linejoin:bevel;stroke-miterlimit:4;stroke-opacity:1;stroke-dasharray:none;stroke-dashoffset:0"
         d="m 292,896.3622 c -6.648,0 -12,5.352 -12,12 l 0,16 12,0 c 0,-8 0,-20 0,-28 z"
         id="path3998"
         inkscape:connector-curvature="0" />
      <path
         style="fill:none;stroke:#ffffff;stroke-width:5;stroke-linecap:square;stroke-linejoin:bevel;stroke-miterlimit:4;stroke-opacity:1;stroke-dasharray:none;stroke-dashoffset:0"
         d="m 308,896.3622 -16,0 0,28 28,0 0,-16 c 0,-6.648 -5.352,-12 -12,-12 z"
         id="path4000"
         inkscape:connector-curvature="0"
         sodipodi:nodetypes="scccss" />
    </g>
  </g>
</svg>
